<?xml version="1.0" encoding="utf-8"?>
<!-- Generator: Adobe Illustrator 22.0.1, SVG Export Plug-In . SVG Version: 6.00 Build 0)  -->
<svg xmlns="http://www.w3.org/2000/svg" xmlns:xlink="http://www.w3.org/1999/xlink" version="1.1" x="0px" y="0px" viewBox="0 0 256 256" style="enable-background:new 0 0 256 256;" xml:space="preserve" width="512" height="512">
<style type="text/css">
	.st0{display:none;}
	.st1{display:inline;}
	.st2{fill:none;stroke:#6B1D1D;stroke-width:0.5;stroke-miterlimit:10;}
	.st3{fill:#3A312A;}
	.st4{fill:#F16C7A;}
	.st5{fill:#D7E057;}
	.st6{fill:#87796F;}
	.st7{fill:#CE4E61;}
	.st8{fill-rule:evenodd;clip-rule:evenodd;fill:#D7E057;}
	.st9{fill-rule:evenodd;clip-rule:evenodd;fill:#FCE8CB;}
	.st10{fill:#B9BC39;}
	.st11{fill:#8AC6DD;}
	.st12{fill:#FCE8CB;}
	.st13{fill:#CCAE8B;}
	.st14{fill:#6B5B51;}
	.st15{fill:#68A8BC;}
	.st16{fill:#F5978A;}
	.st17{fill-rule:evenodd;clip-rule:evenodd;fill:#F16C7A;}
	.st18{fill-rule:evenodd;clip-rule:evenodd;fill:#8AC6DD;}
</style>
<g id="Layer_1" class="st0">
	<g class="st1">
		<g>
			<line class="st2" x1="0" y1="4.829" x2="256" y2="4.829"/>
			<line class="st2" x1="0" y1="16.56" x2="256" y2="16.56"/>
			<line class="st2" x1="0" y1="28.29" x2="256" y2="28.29"/>
			<line class="st2" x1="0" y1="40.021" x2="256" y2="40.021"/>
			<line class="st2" x1="0" y1="51.751" x2="256" y2="51.751"/>
			<line class="st2" x1="0" y1="63.482" x2="256" y2="63.482"/>
			<line class="st2" x1="0" y1="75.213" x2="256" y2="75.213"/>
			<line class="st2" x1="0" y1="86.943" x2="256" y2="86.943"/>
			<line class="st2" x1="0" y1="98.674" x2="256" y2="98.674"/>
			<line class="st2" x1="0" y1="110.404" x2="256" y2="110.404"/>
			<line class="st2" x1="0" y1="122.135" x2="256" y2="122.135"/>
			<line class="st2" x1="0" y1="133.865" x2="256" y2="133.865"/>
			<line class="st2" x1="0" y1="145.596" x2="256" y2="145.596"/>
			<line class="st2" x1="0" y1="157.326" x2="256" y2="157.326"/>
			<line class="st2" x1="0" y1="169.057" x2="256" y2="169.057"/>
			<line class="st2" x1="0" y1="180.788" x2="256" y2="180.788"/>
			<line class="st2" x1="0" y1="192.518" x2="256" y2="192.518"/>
			<line class="st2" x1="0" y1="204.249" x2="256" y2="204.249"/>
			<line class="st2" x1="0" y1="215.979" x2="256" y2="215.979"/>
			<line class="st2" x1="0" y1="227.71" x2="256" y2="227.71"/>
			<line class="st2" x1="0" y1="239.44" x2="256" y2="239.44"/>
			<line class="st2" x1="0" y1="251.171" x2="256" y2="251.171"/>
		</g>
		<g>
			<line class="st2" x1="251.171" y1="0" x2="251.171" y2="256"/>
			<line class="st2" x1="239.44" y1="0" x2="239.44" y2="256"/>
			<line class="st2" x1="227.71" y1="0" x2="227.71" y2="256"/>
			<line class="st2" x1="215.979" y1="0" x2="215.979" y2="256"/>
			<line class="st2" x1="204.249" y1="0" x2="204.249" y2="256"/>
			<line class="st2" x1="192.518" y1="0" x2="192.518" y2="256"/>
			<line class="st2" x1="180.787" y1="0" x2="180.787" y2="256"/>
			<line class="st2" x1="169.057" y1="0" x2="169.057" y2="256"/>
			<line class="st2" x1="157.326" y1="0" x2="157.326" y2="256"/>
			<line class="st2" x1="145.596" y1="0" x2="145.596" y2="256"/>
			<line class="st2" x1="133.865" y1="0" x2="133.865" y2="256"/>
			<line class="st2" x1="122.135" y1="0" x2="122.135" y2="256"/>
			<line class="st2" x1="110.404" y1="0" x2="110.404" y2="256"/>
			<line class="st2" x1="98.674" y1="0" x2="98.674" y2="256"/>
			<line class="st2" x1="86.943" y1="0" x2="86.943" y2="256"/>
			<line class="st2" x1="75.212" y1="0" x2="75.212" y2="256"/>
			<line class="st2" x1="63.482" y1="0" x2="63.482" y2="256"/>
			<line class="st2" x1="51.751" y1="0" x2="51.751" y2="256"/>
			<line class="st2" x1="40.021" y1="0" x2="40.021" y2="256"/>
			<line class="st2" x1="28.29" y1="0" x2="28.29" y2="256"/>
			<line class="st2" x1="16.56" y1="0" x2="16.56" y2="256"/>
			<line class="st2" x1="4.829" y1="0" x2="4.829" y2="256"/>
		</g>
	</g>
</g>
<g id="Layer_2">
	<g>
		<g>
			<g>
				<path class="st5" d="M73.458,26.269c-0.974,11.564-13.024,13.389-13.024,13.389c10.347,0.487,12.925,14.059,12.925,14.059      C73.58,44.04,86.68,39.515,86.68,39.515C76.866,38.928,73.458,26.269,73.458,26.269z"/>
			</g>
		</g>
		<g>
			<g>
				<path class="st3" d="M86.769,38.018c-8.605-0.514-11.832-12.024-11.864-12.14c-0.191-0.703-0.865-1.167-1.583-1.102      c-0.725,0.066-1.298,0.642-1.359,1.367c-0.86,10.215-11.313,11.963-11.754,12.032c-0.763,0.115-1.313,0.79-1.273,1.56      c0.04,0.77,0.657,1.384,1.428,1.421c9.028,0.425,11.498,12.718,11.523,12.842c0.137,0.711,0.759,1.217,1.472,1.217      c0.042,0,0.084-0.002,0.126-0.005c0.764-0.064,1.357-0.693,1.375-1.459c0.195-8.508,12.192-12.777,12.313-12.819      c0.675-0.235,1.092-0.914,0.994-1.622C88.067,38.602,87.483,38.06,86.769,38.018z M73.203,48.364      c-1.356-3.131-3.709-6.908-7.587-8.877c2.931-1.404,6.409-3.913,8.202-8.272c1.551,3.071,4.2,6.88,8.334,8.722      C79.145,41.577,75.229,44.343,73.203,48.364z"/>
			</g>
		</g>
		<g>
			<g>
				<path class="st5" d="M51.759,43.249c-0.689,8.179-9.212,9.471-9.212,9.471c7.318,0.344,9.142,9.944,9.142,9.944      c0.156-6.844,9.422-10.045,9.422-10.045C54.17,52.203,51.759,43.249,51.759,43.249z"/>
			</g>
		</g>
		<g>
			<g>
				<path class="st3" d="M61.201,51.121c-5.744-0.344-7.956-8.126-7.994-8.263c-0.19-0.703-0.861-1.161-1.582-1.103      c-0.726,0.065-1.299,0.643-1.36,1.368c-0.579,6.87-7.646,8.066-7.942,8.113c-0.763,0.115-1.313,0.79-1.273,1.561      c0.04,0.77,0.657,1.384,1.428,1.421c6.035,0.284,7.724,8.644,7.739,8.726c0.135,0.713,0.759,1.22,1.472,1.22      c0.042,0,0.083-0.001,0.125-0.005c0.765-0.063,1.358-0.694,1.376-1.461c0.13-5.709,8.332-8.634,8.412-8.662      c0.677-0.234,1.094-0.913,0.996-1.622C62.5,51.706,61.915,51.164,61.201,51.121z M51.616,57.916      c-0.924-1.885-2.34-3.947-4.447-5.28c1.856-1.041,3.697-2.629,4.871-4.916c1.057,1.874,2.654,3.955,4.941,5.224      C55.131,54.044,52.992,55.684,51.616,57.916z"/>
			</g>
		</g>
		<g>
			<g>
				<path class="st5" d="M51.759,16.592c-0.689,8.179-9.212,9.471-9.212,9.471c7.318,0.344,9.142,9.944,9.142,9.944      c0.156-6.845,9.422-10.045,9.422-10.045C54.17,25.546,51.759,16.592,51.759,16.592z"/>
			</g>
		</g>
		<g>
			<g>
				<path class="st3" d="M61.201,24.464c-5.766-0.345-7.973-8.186-7.994-8.265c-0.191-0.702-0.855-1.166-1.582-1.102      c-0.726,0.065-1.299,0.643-1.36,1.368c-0.579,6.871-7.646,8.067-7.942,8.114c-0.763,0.115-1.313,0.79-1.273,1.56      c0.04,0.77,0.657,1.384,1.428,1.421c6.035,0.284,7.724,8.644,7.739,8.726c0.135,0.713,0.759,1.22,1.472,1.22      c0.042,0,0.083-0.001,0.125-0.005c0.765-0.064,1.358-0.694,1.376-1.461c0.13-5.709,8.331-8.634,8.412-8.662      c0.676-0.234,1.094-0.913,0.996-1.622C62.5,25.048,61.915,24.507,61.201,24.464z M51.616,31.259      c-0.924-1.886-2.34-3.947-4.447-5.28c1.856-1.041,3.697-2.63,4.871-4.916c1.057,1.873,2.654,3.954,4.941,5.224      C55.131,27.387,52.992,29.027,51.616,31.259z"/>
			</g>
		</g>
		<g>
			<g>
				<rect x="85.14" y="80.468" class="st6" width="114.667" height="135.479"/>
			</g>
		</g>
		<g>
			<g>
				<path class="st3" d="M199.807,78.968H85.14c-0.829,0-1.5,0.671-1.5,1.5v135.479c0,0.829,0.671,1.5,1.5,1.5h114.667      c0.829,0,1.5-0.671,1.5-1.5V80.468C201.307,79.64,200.635,78.968,199.807,78.968z M198.307,214.447H86.64V81.968h111.667      V214.447z"/>
			</g>
		</g>
		<g>
			<g>
				<path class="st3" d="M178.422,181.558h-18.03v-11.193c0-0.558-0.31-1.07-0.804-1.329c-0.494-0.258-1.091-0.222-1.55,0.096      c-5.443,3.774-10.678,5.687-15.561,5.687c-4.678,0-9.794-1.933-15.209-5.747c-0.253-0.178-0.555-0.273-0.864-0.273h-0.331      c-0.829,0-1.5,0.671-1.5,1.5v11.259h-18.041c-17.127,0-31.061,13.934-31.061,31.06v26.788c0,0.829,0.671,1.5,1.5,1.5h44.89      c0.829,0,1.5-0.671,1.5-1.5c0-0.829-0.671-1.5-1.5-1.5h-43.39v-25.288c0-15.472,12.588-28.06,28.061-28.06h19.541      c0.829,0,1.5-0.671,1.5-1.5v-10.176c5.2,3.278,10.205,4.938,14.904,4.938c4.777,0,9.784-1.576,14.916-4.69v9.929      c0,0.829,0.671,1.5,1.5,1.5h19.53c15.473,0,28.061,12.588,28.061,28.06v25.288h-69.855c-0.829,0-1.5,0.671-1.5,1.5      c0,0.829,0.671,1.5,1.5,1.5h71.355c0.829,0,1.5-0.671,1.5-1.5v-26.788C209.483,195.491,195.549,181.558,178.422,181.558z"/>
			</g>
		</g>
		<g>
			<g>
				<path class="st4" d="M178.423,183.049h-4.673l0.122,0.088l-20.315,26.943l-10.483-7.898l-10.483,7.898l-20.314-26.943      l0.121-0.088h-5.866c-16.327,0-29.56,13.234-29.56,29.56v26.799h131.012v-26.799      C207.983,196.283,194.75,183.049,178.423,183.049z"/>
			</g>
		</g>
		<g>
			<g>
				<path class="st3" d="M178.423,181.549h-4.673c-0.65,0-1.226,0.419-1.427,1.036c-0.018,0.058-0.034,0.116-0.045,0.174      l-19.016,25.221l-9.286-6.997c-0.535-0.402-1.271-0.402-1.806,0l-9.286,6.997l-19.016-25.221      c-0.011-0.058-0.026-0.116-0.045-0.174c-0.201-0.618-0.777-1.036-1.427-1.036h-5.866c-17.127,0-31.06,13.934-31.06,31.061      v26.799c0,0.829,0.671,1.5,1.5,1.5h44.889c0.829,0,1.5-0.671,1.5-1.5c0-0.829-0.671-1.5-1.5-1.5H78.471v-25.299      c0-15.473,12.588-28.061,28.06-28.061h4.93l19.931,26.434c0.499,0.662,1.439,0.793,2.101,0.295l9.581-7.219l9.581,7.219      c0.661,0.498,1.601,0.366,2.101-0.295l19.931-26.434h3.737c15.473,0,28.06,12.588,28.06,28.061v25.299h-69.856      c-0.829,0-1.5,0.671-1.5,1.5c0,0.829,0.671,1.5,1.5,1.5h71.356c0.829,0,1.5-0.671,1.5-1.5v-26.799      C209.483,195.482,195.55,181.549,178.423,181.549z"/>
			</g>
		</g>
		<g>
			<g>
				<path class="st9" d="M91.718,98.147c-6.424,0-11.631,5.208-11.631,11.631s5.207,11.631,11.631,11.631      c6.424,0,11.631-5.207,11.631-11.631S98.142,98.147,91.718,98.147z"/>
			</g>
		</g>
		<g>
			<g>
				<path class="st3" d="M91.718,96.647c-7.241,0-13.131,5.891-13.131,13.132c0,7.241,5.891,13.131,13.131,13.131      c7.241,0,13.131-5.891,13.131-13.131C104.849,102.538,98.958,96.647,91.718,96.647z M91.718,119.91      c-5.586,0-10.131-4.545-10.131-10.131c0-5.587,4.545-10.132,10.131-10.132c5.586,0,10.131,4.545,10.131,10.132      C101.849,115.365,97.304,119.91,91.718,119.91z"/>
			</g>
		</g>
		<g>
			<g>
				
					<ellipse transform="matrix(0.982 -0.1891 0.1891 0.982 -17.2732 38.5237)" class="st9" cx="193.24" cy="109.779" rx="11.632" ry="11.631"/>
			</g>
		</g>
		<g>
			<g>
				<path class="st3" d="M193.24,96.647c-7.241,0-13.131,5.891-13.131,13.132c0,7.241,5.891,13.131,13.131,13.131      c7.241,0,13.131-5.891,13.131-13.131C206.371,102.538,200.48,96.647,193.24,96.647z M193.24,119.91      c-5.586,0-10.131-4.545-10.131-10.131c0-5.587,4.545-10.132,10.131-10.132c5.586,0,10.131,4.545,10.131,10.132      C203.371,115.365,198.826,119.91,193.24,119.91z"/>
			</g>
		</g>
		<g>
			<g>
				<path class="st12" d="M142.479,52.569c-28.478,0-51.563,23.086-51.563,51.563c0,28.477,28.524,72.188,51.563,72.188      c24.137,0,51.563-43.711,51.563-72.188C194.042,75.655,170.956,52.569,142.479,52.569z"/>
			</g>
		</g>
		<g>
			<g>
				<path class="st3" d="M142.478,51.069c-29.259,0-53.063,23.804-53.063,53.063c0,13.838,6.67,32.087,17.408,47.626      c11.277,16.319,24.606,26.063,35.655,26.063c11.633,0,24.781-9.502,36.073-26.07c10.48-15.378,16.991-33.623,16.991-47.618      C195.542,74.873,171.738,51.069,142.478,51.069z M142.478,174.821c-10.064,0-22.471-9.259-33.187-24.768      c-10.409-15.064-16.876-32.66-16.876-45.92c0-27.605,22.458-50.063,50.063-50.063c27.605,0,50.064,22.458,50.064,50.063      C192.542,132.043,165.689,174.821,142.478,174.821z"/>
			</g>
		</g>
		<g>
			<g>
				
					<ellipse transform="matrix(0.9966 -0.0825 0.0825 0.9966 -8.1175 10.6032)" class="st3" cx="124.274" cy="103.55" rx="5.033" ry="5.033"/>
			</g>
		</g>
		<g>
			<g>
				<path class="st3" d="M160.683,98.517c-2.779,0-5.033,2.253-5.033,5.033c0,2.78,2.253,5.033,5.033,5.033      c2.78,0,5.033-2.253,5.033-5.033C165.716,100.771,163.463,98.517,160.683,98.517z"/>
			</g>
		</g>
		<g>
			<g>
				<path class="st16" d="M114.215,112.032c-4.788,0-8.67,2.902-8.67,6.481c0,3.579,3.882,6.481,8.67,6.481      c4.788,0,8.67-2.902,8.67-6.481C122.885,114.933,119.003,112.032,114.215,112.032z"/>
			</g>
		</g>
		<g>
			<g>
				<path class="st16" d="M170.742,112.032c-4.788,0-8.67,2.902-8.67,6.481c0,3.579,3.882,6.481,8.67,6.481      c4.788,0,8.669-2.902,8.669-6.481C179.411,114.933,175.53,112.032,170.742,112.032z"/>
			</g>
		</g>
		<g>
			<g>
				
					<rect x="121.108" y="175.768" transform="matrix(0.7986 -0.6019 0.6019 0.7986 -90.2232 115.653)" class="st6" width="13.182" height="33.742"/>
			</g>
		</g>
		<g>
			<g>
				<path class="st3" d="M144.314,201.243l-20.308-26.947c-0.5-0.662-1.439-0.794-2.101-0.295l-10.527,7.934      c-0.318,0.239-0.527,0.595-0.582,0.989c-0.055,0.394,0.048,0.794,0.288,1.111l20.309,26.947      c0.295,0.391,0.744,0.597,1.199,0.597c0.315,0,0.631-0.098,0.902-0.302l10.527-7.933      C144.681,202.845,144.813,201.905,144.314,201.243z M132.885,207.979l-18.503-24.551l8.132-6.128l18.502,24.551L132.885,207.979      z"/>
			</g>
		</g>
		<g>
			<g>
				
					<rect x="141.577" y="186.049" transform="matrix(0.6019 -0.7986 0.7986 0.6019 -90.7574 203.2356)" class="st6" width="33.743" height="13.182"/>
			</g>
		</g>
		<g>
			<g>
				<path class="st3" d="M175.352,182.924c-0.055-0.394-0.265-0.75-0.583-0.989l-10.527-7.934c-0.317-0.24-0.718-0.343-1.111-0.288      c-0.394,0.055-0.75,0.265-0.989,0.583l-20.308,26.947c-0.498,0.662-0.367,1.602,0.295,2.101l10.526,7.933      c0.262,0.197,0.579,0.302,0.903,0.302c0.069,0,0.139-0.005,0.209-0.015c0.394-0.055,0.75-0.265,0.989-0.583l20.309-26.947      C175.304,183.718,175.407,183.318,175.352,182.924z M153.263,207.979l-8.131-6.128l18.503-24.551l8.131,6.128L153.263,207.979z"/>
			</g>
		</g>
		<g>
			<g>
				<path class="st3" d="M101.511,216.736c-0.829,0-1.5,0.671-1.5,1.5v21.172c0,0.829,0.671,1.5,1.5,1.5s1.5-0.671,1.5-1.5v-21.172      C103.011,217.407,102.34,216.736,101.511,216.736z"/>
			</g>
		</g>
		<g>
			<g>
				<path class="st3" d="M184.636,216.736c-0.829,0-1.5,0.671-1.5,1.5v21.172c0,0.829,0.671,1.5,1.5,1.5s1.5-0.671,1.5-1.5v-21.172      C186.136,217.407,185.465,216.736,184.636,216.736z"/>
			</g>
		</g>
		<g>
			<g>
				<path class="st3" d="M157.25,135.684c-0.775-0.292-1.64,0.103-1.931,0.879c-1.022,2.73-5.022,7.894-12.843,7.894      c-6.109,0-10.326-2.621-12.893-8.013c-0.357-0.748-1.25-1.066-1.999-0.71c-0.748,0.356-1.066,1.251-0.71,1.999      c3.072,6.453,8.321,9.724,15.602,9.724c8.222,0,13.877-5.102,15.652-9.843C158.42,136.839,158.026,135.975,157.25,135.684z"/>
			</g>
		</g>
		<g>
			<g>
				<path class="st7" d="M178.421,184.548h-3.74l-0.41,0.54c12.84,2.57,22.55,13.93,22.55,27.52v25.3h9.66v-25.3      C206.481,197.138,193.891,184.548,178.421,184.548z"/>
			</g>
		</g>
		<g>
			<g>
				<path class="st6" d="M206.847,91.011c-0.847-5.507-2.118-10.926-4.09-16.17c-9.173-24.481-26.511-43.236-52.774-46.289      c1.285,9.392,3.184,18.726,7.289,27.242c2.819,5.843,6.617,11.174,10.692,16.228c11.189,13.891,24.876,26.103,40.388,34.779      C208.059,101.499,207.65,96.211,206.847,91.011z"/>
			</g>
		</g>
		<g>
			<g>
				<path class="st3" d="M208.329,90.783c-0.943-6.133-2.307-11.521-4.168-16.468c-10.352-27.626-29.532-44.408-54.006-47.252      c-0.462-0.053-0.92,0.109-1.245,0.44c-0.325,0.331-0.477,0.794-0.415,1.253c1.161,8.485,2.951,18.41,7.424,27.69      c2.484,5.147,5.94,10.396,10.876,16.517c11.809,14.661,25.925,26.814,40.823,35.147c0.228,0.127,0.48,0.191,0.732,0.191      c0.276,0,0.552-0.076,0.794-0.228c0.464-0.289,0.734-0.809,0.704-1.355C209.606,102.306,209.213,96.508,208.329,90.783z       M169.131,71.081c-4.788-5.939-8.128-11.003-10.509-15.938c-3.957-8.211-5.739-17.045-6.878-24.843      c22.379,3.356,39.947,19.286,49.609,45.07c1.788,4.753,3.1,9.944,4.011,15.871c0.691,4.473,1.076,9.014,1.325,12.875      C193.005,96.029,180.066,84.656,169.131,71.081z"/>
			</g>
		</g>
		<g>
			<g>
				<path class="st6" d="M142.255,28.099c-32.193,0-63.365,27.037-62.59,60.326c0.073,3.389,0.321,6.792,0.716,10.181      c34.414-14.87,67.98-34.165,91.044-63.204C163.099,30.728,153.386,28.099,142.255,28.099z"/>
			</g>
		</g>
		<g>
			<g>
				<path class="st3" d="M172.897,35.114c-0.084-0.431-0.354-0.804-0.737-1.019c-8.86-4.974-18.921-7.496-29.904-7.496      c-16.98,0-34.522,7.579-46.925,20.273C83.91,58.563,77.813,73.332,78.165,88.457c0.071,3.326,0.315,6.799,0.725,10.322      c0.055,0.471,0.329,0.889,0.74,1.125c0.231,0.134,0.49,0.201,0.75,0.201c0.202,0,0.405-0.041,0.595-0.123      C123.636,81.55,152.75,61.326,172.6,36.336C172.873,35.992,172.982,35.545,172.897,35.114z M81.654,96.417      c-0.269-2.736-0.434-5.428-0.489-8.026c-0.333-14.314,5.46-28.314,16.312-39.421c11.85-12.129,28.59-19.37,44.779-19.37      c9.82,0,18.85,2.107,26.872,6.268C149.918,59.454,122.032,78.755,81.654,96.417z"/>
			</g>
		</g>
		<g>
			<g>
				<path class="st3" d="M140.457,172.513c-28.857,0-52.333-23.477-52.333-52.333c0-0.829-0.671-1.5-1.5-1.5      c-0.829,0-1.5,0.671-1.5,1.5c0,30.511,24.822,55.333,55.333,55.333c0.829,0,1.5-0.671,1.5-1.5S141.286,172.513,140.457,172.513z      "/>
			</g>
		</g>
		<g>
			<g>
				<path class="st5" d="M149.413,165.842h-12.578c-2.648,0-4.794,2.146-4.794,4.794v4.588c0,2.648,2.146,4.794,4.794,4.794h12.578      c2.648,0,4.794-2.146,4.794-4.794v-4.588C154.207,167.988,152.061,165.842,149.413,165.842z"/>
			</g>
		</g>
		<g>
			<g>
				<path class="st3" d="M149.413,164.342h-12.578c-3.471,0-6.294,2.824-6.294,6.294v4.588c0,3.471,2.823,6.294,6.294,6.294h12.578      c3.471,0,6.294-2.823,6.294-6.294v-4.588C155.707,167.165,152.884,164.342,149.413,164.342z M152.707,175.224      c0,1.816-1.478,3.294-3.294,3.294h-12.578c-1.816,0-3.294-1.478-3.294-3.294v-4.588c0-1.816,1.478-3.294,3.294-3.294h12.578      c1.816,0,3.294,1.478,3.294,3.294V175.224z"/>
			</g>
		</g>
		<g>
			<g>
				<path class="st5" d="M89.082,90.013h-6.125c-6.213,0-11.25,5.037-11.25,11.25v0.346c0.005,0,0.01-0.001,0.016-0.001v15.31      c-0.005,0-0.01-0.001-0.016-0.001v0.346c0,6.213,5.037,11.25,11.25,11.25h6.125c1.726,0,3.125-1.399,3.125-3.125v-32.25      C92.207,91.412,90.808,90.013,89.082,90.013z"/>
			</g>
		</g>
		<g>
			<g>
				<path class="st3" d="M89.082,88.513h-6.125c-7.03,0-12.75,5.72-12.75,12.75v0.346c0,0.829,0.687,1.5,1.516,1.5      c0.829,0,1.492-0.671,1.492-1.5c0-0.052-0.002-0.103-0.008-0.153v-0.192c0-5.376,4.374-9.75,9.75-9.75h6.125      c0.896,0,1.625,0.729,1.625,1.625v32.25c0,0.896-0.729,1.625-1.625,1.625h-6.125c-5.376,0-9.75-4.374-9.75-9.75v-0.128      c0.01-0.071,0.016-0.143,0.016-0.217c0-0.801-0.627-1.455-1.418-1.498c-0.909-0.067-1.597,0.637-1.598,1.497v0.346      c0,7.03,5.72,12.75,12.75,12.75h6.125c2.55,0,4.625-2.075,4.625-4.625v-32.25C93.707,90.588,91.633,88.513,89.082,88.513z"/>
			</g>
		</g>
		<g>
			<g>
				<path class="st5" d="M202.203,90.013h-6.125c-1.726,0-3.125,1.399-3.125,3.125v32.25c0,1.726,1.399,3.125,3.125,3.125h6.125      c6.213,0,11.25-5.037,11.25-11.25v-16C213.453,95.05,208.417,90.013,202.203,90.013z"/>
			</g>
		</g>
		<g>
			<g>
				<path class="st3" d="M202.204,88.513h-6.125c-2.55,0-4.625,2.075-4.625,4.625v32.25c0,2.55,2.075,4.625,4.625,4.625h6.125      c7.03,0,12.75-5.72,12.75-12.75v-16C214.954,94.233,209.234,88.513,202.204,88.513z M211.954,117.263      c0,5.376-4.374,9.75-9.75,9.75h-6.125c-0.896,0-1.625-0.729-1.625-1.625v-32.25c0-0.896,0.729-1.625,1.625-1.625h6.125      c5.376,0,9.75,4.374,9.75,9.75V117.263z"/>
			</g>
		</g>
		<g>
			<g>
				<path class="st10" d="M202.203,91.513h-5.5c5.38,0,9.75,4.37,9.75,9.75v16c0,5.38-4.37,9.75-9.75,9.75h5.5      c5.38,0,9.75-4.37,9.75-9.75v-16C211.953,95.883,207.583,91.513,202.203,91.513z"/>
			</g>
		</g>
		<g>
			<g>
				<path class="st4" d="M142.483,36.098c-30.3,0-55,23.93-56.24,53.92h2.84c1.73,0,3.12,1.39,3.12,3.12v0.49      c5.23-22.94,25.76-40.06,50.28-40.06c24.84,0,45.59,17.58,50.47,40.98v-1.41c0-1.73,1.4-3.12,3.13-3.12h2.63      C197.473,60.028,172.773,36.098,142.483,36.098z"/>
			</g>
		</g>
		<g>
			<g>
				<path class="st3" d="M142.483,34.598c-31.093,0-56.455,24.316-57.738,55.358c-0.017,0.408,0.133,0.806,0.416,1.101      c0.283,0.295,0.674,0.461,1.083,0.461h2.84c0.909,0,1.62,0.711,1.62,1.62v0.49c0,0.764,0.574,1.405,1.332,1.491      c0.761,0.084,1.461-0.413,1.63-1.157c5.221-22.9,25.295-38.893,48.817-38.893c23.586,0,44.194,16.733,49.002,39.787      c0.146,0.702,0.765,1.194,1.467,1.194c0.051,0,0.104-0.002,0.155-0.008c0.765-0.079,1.346-0.723,1.346-1.492v-1.41      c0-0.894,0.731-1.62,1.63-1.62h2.63c0.409,0,0.799-0.167,1.083-0.461c0.283-0.295,0.433-0.692,0.416-1.101      C198.928,58.914,173.571,34.598,142.483,34.598z M196.083,88.518c-1.086,0-2.086,0.375-2.877,1.003      c-6.76-21.968-27.364-37.453-50.723-37.453c-23.572,0-43.878,15.155-50.699,37.324c-0.76-0.55-1.693-0.874-2.701-0.874h-1.255      c1.986-28.679,25.699-50.92,54.655-50.92c28.95,0,52.659,22.241,54.645,50.92H196.083z"/>
			</g>
		</g>
		<g>
			<g>
				<path class="st7" d="M182.69,184.873c-1.392-0.214-2.818-0.324-4.269-0.324h-3.74l-0.41,0.54c0.002,0,0.005,0.001,0.007,0.001      c12.837,2.573,22.543,13.931,22.543,27.518v25.3h9.66v-25.3C206.481,198.589,196.142,186.935,182.69,184.873z"/>
			</g>
		</g>
		<g>
			<g>
				<path class="st10" d="M211.729,99.201c-0.948-4.391-4.854-7.688-9.526-7.688h-3.445c-0.015,0-0.029,0.005-0.045,0.005h-1.921      c5.339,0.049,9.661,4.396,9.661,9.745v16c0,5.38-4.37,9.75-9.75,9.75h5.5c0.497,0,0.981-0.049,1.458-0.121      c3.948-0.595,7.119-3.554,8.023-7.393c0.169-0.719,0.268-1.465,0.268-2.236v-16C211.953,100.555,211.873,99.866,211.729,99.201z      "/>
			</g>
		</g>
	</g>
</g>
</svg>
