<?xml version="1.0" encoding="utf-8"?>
<!-- Generator: Adobe Illustrator 22.0.1, SVG Export Plug-In . SVG Version: 6.00 Build 0)  -->
<svg xmlns="http://www.w3.org/2000/svg" xmlns:xlink="http://www.w3.org/1999/xlink" version="1.1" x="0px" y="0px" viewBox="0 0 256 256" style="enable-background:new 0 0 256 256;" xml:space="preserve" width="512" height="512">
<style type="text/css">
	.st0{display:none;}
	.st1{display:inline;}
	.st2{fill:none;stroke:#6B1D1D;stroke-width:0.5;stroke-miterlimit:10;}
	.st3{fill:#3A312A;}
	.st4{fill:#F16C7A;}
	.st5{fill:#D7E057;}
	.st6{fill:#87796F;}
	.st7{fill:#CE4E61;}
	.st8{fill-rule:evenodd;clip-rule:evenodd;fill:#D7E057;}
	.st9{fill-rule:evenodd;clip-rule:evenodd;fill:#FCE8CB;}
	.st10{fill:#B9BC39;}
	.st11{fill:#8AC6DD;}
	.st12{fill:#FCE8CB;}
	.st13{fill:#CCAE8B;}
	.st14{fill:#6B5B51;}
	.st15{fill:#68A8BC;}
	.st16{fill:#F5978A;}
	.st17{fill-rule:evenodd;clip-rule:evenodd;fill:#F16C7A;}
	.st18{fill-rule:evenodd;clip-rule:evenodd;fill:#8AC6DD;}
</style>
<g id="Layer_1" class="st0">
	<g class="st1">
		<g>
			<line class="st2" x1="0" y1="4.829" x2="256" y2="4.829"/>
			<line class="st2" x1="0" y1="16.56" x2="256" y2="16.56"/>
			<line class="st2" x1="0" y1="28.29" x2="256" y2="28.29"/>
			<line class="st2" x1="0" y1="40.021" x2="256" y2="40.021"/>
			<line class="st2" x1="0" y1="51.751" x2="256" y2="51.751"/>
			<line class="st2" x1="0" y1="63.482" x2="256" y2="63.482"/>
			<line class="st2" x1="0" y1="75.213" x2="256" y2="75.213"/>
			<line class="st2" x1="0" y1="86.943" x2="256" y2="86.943"/>
			<line class="st2" x1="0" y1="98.674" x2="256" y2="98.674"/>
			<line class="st2" x1="0" y1="110.404" x2="256" y2="110.404"/>
			<line class="st2" x1="0" y1="122.135" x2="256" y2="122.135"/>
			<line class="st2" x1="0" y1="133.865" x2="256" y2="133.865"/>
			<line class="st2" x1="0" y1="145.596" x2="256" y2="145.596"/>
			<line class="st2" x1="0" y1="157.326" x2="256" y2="157.326"/>
			<line class="st2" x1="0" y1="169.057" x2="256" y2="169.057"/>
			<line class="st2" x1="0" y1="180.788" x2="256" y2="180.788"/>
			<line class="st2" x1="0" y1="192.518" x2="256" y2="192.518"/>
			<line class="st2" x1="0" y1="204.249" x2="256" y2="204.249"/>
			<line class="st2" x1="0" y1="215.979" x2="256" y2="215.979"/>
			<line class="st2" x1="0" y1="227.71" x2="256" y2="227.71"/>
			<line class="st2" x1="0" y1="239.44" x2="256" y2="239.44"/>
			<line class="st2" x1="0" y1="251.171" x2="256" y2="251.171"/>
		</g>
		<g>
			<line class="st2" x1="251.171" y1="0" x2="251.171" y2="256"/>
			<line class="st2" x1="239.44" y1="0" x2="239.44" y2="256"/>
			<line class="st2" x1="227.71" y1="0" x2="227.71" y2="256"/>
			<line class="st2" x1="215.979" y1="0" x2="215.979" y2="256"/>
			<line class="st2" x1="204.249" y1="0" x2="204.249" y2="256"/>
			<line class="st2" x1="192.518" y1="0" x2="192.518" y2="256"/>
			<line class="st2" x1="180.788" y1="0" x2="180.788" y2="256"/>
			<line class="st2" x1="169.057" y1="0" x2="169.057" y2="256"/>
			<line class="st2" x1="157.326" y1="0" x2="157.326" y2="256"/>
			<line class="st2" x1="145.596" y1="0" x2="145.596" y2="256"/>
			<line class="st2" x1="133.865" y1="0" x2="133.865" y2="256"/>
			<line class="st2" x1="122.135" y1="0" x2="122.135" y2="256"/>
			<line class="st2" x1="110.404" y1="0" x2="110.404" y2="256"/>
			<line class="st2" x1="98.674" y1="0" x2="98.674" y2="256"/>
			<line class="st2" x1="86.943" y1="0" x2="86.943" y2="256"/>
			<line class="st2" x1="75.213" y1="0" x2="75.213" y2="256"/>
			<line class="st2" x1="63.482" y1="0" x2="63.482" y2="256"/>
			<line class="st2" x1="51.751" y1="0" x2="51.751" y2="256"/>
			<line class="st2" x1="40.021" y1="0" x2="40.021" y2="256"/>
			<line class="st2" x1="28.29" y1="0" x2="28.29" y2="256"/>
			<line class="st2" x1="16.56" y1="0" x2="16.56" y2="256"/>
			<line class="st2" x1="4.829" y1="0" x2="4.829" y2="256"/>
		</g>
	</g>
</g>
<g id="Layer_2">
	<g>
		<g>
			<g>
				<path class="st5" d="M47.865,25.613c-0.974,11.564-13.024,13.389-13.024,13.389c10.347,0.487,12.925,14.059,12.925,14.059      c0.221-9.677,13.321-14.202,13.321-14.202C51.274,38.272,47.865,25.613,47.865,25.613z"/>
			</g>
		</g>
		<g>
			<g>
				<path class="st3" d="M61.177,37.362c-8.604-0.514-11.832-12.024-11.863-12.14c-0.19-0.702-0.851-1.165-1.584-1.102      c-0.725,0.066-1.298,0.642-1.359,1.367C45.511,35.702,35.058,37.451,34.616,37.52c-0.763,0.115-1.313,0.79-1.273,1.561      c0.04,0.77,0.657,1.384,1.428,1.421c9.028,0.425,11.499,12.719,11.522,12.843c0.138,0.711,0.76,1.217,1.473,1.217      c0.042,0,0.084-0.001,0.126-0.005c0.765-0.064,1.357-0.693,1.375-1.46c0.193-8.509,12.19-12.777,12.312-12.819      c0.676-0.235,1.092-0.915,0.994-1.623C62.474,37.946,61.891,37.405,61.177,37.362z M47.611,47.708      c-1.357-3.13-3.709-6.907-7.588-8.877c2.932-1.405,6.409-3.913,8.202-8.273c1.551,3.071,4.2,6.88,8.334,8.722      C53.553,40.921,49.638,43.687,47.611,47.708z"/>
			</g>
		</g>
		<g>
			<g>
				<path class="st5" d="M26.167,42.594c-0.689,8.179-9.212,9.471-9.212,9.471c7.318,0.344,9.142,9.944,9.142,9.944      c0.156-6.844,9.422-10.045,9.422-10.045C28.578,51.548,26.167,42.594,26.167,42.594z"/>
			</g>
		</g>
		<g>
			<g>
				<path class="st3" d="M35.608,50.465c-5.767-0.345-7.972-8.185-7.993-8.264c-0.19-0.702-0.86-1.16-1.582-1.102      c-0.726,0.065-1.3,0.642-1.361,1.368c-0.579,6.871-7.646,8.067-7.942,8.114c-0.763,0.115-1.313,0.79-1.273,1.561      c0.04,0.77,0.657,1.384,1.428,1.421c6.035,0.284,7.724,8.643,7.739,8.726c0.136,0.712,0.759,1.22,1.473,1.22      c0.041,0,0.083-0.001,0.125-0.005c0.765-0.064,1.358-0.694,1.376-1.461c0.13-5.709,8.331-8.634,8.412-8.662      c0.676-0.234,1.093-0.913,0.996-1.622C36.907,51.05,36.322,50.508,35.608,50.465z M26.023,57.261      c-0.924-1.886-2.34-3.947-4.447-5.28c1.855-1.041,3.697-2.63,4.871-4.917c1.057,1.874,2.654,3.954,4.941,5.224      C29.538,53.389,27.399,55.028,26.023,57.261z"/>
			</g>
		</g>
		<g>
			<g>
				<path class="st5" d="M26.167,15.936c-0.689,8.179-9.212,9.471-9.212,9.471c7.318,0.344,9.142,9.944,9.142,9.944      c0.156-6.845,9.422-10.045,9.422-10.045C28.578,24.89,26.167,15.936,26.167,15.936z"/>
			</g>
		</g>
		<g>
			<g>
				<path class="st3" d="M35.608,23.808c-5.767-0.345-7.972-8.185-7.993-8.265c-0.19-0.702-0.86-1.159-1.582-1.102      c-0.726,0.065-1.3,0.642-1.361,1.368c-0.579,6.871-7.646,8.067-7.942,8.114c-0.763,0.115-1.313,0.79-1.273,1.561      c0.04,0.77,0.657,1.384,1.428,1.421c6.035,0.284,7.724,8.644,7.739,8.726c0.136,0.712,0.759,1.22,1.473,1.22      c0.041,0,0.083-0.002,0.125-0.005c0.765-0.063,1.358-0.694,1.376-1.461c0.13-5.71,8.331-8.634,8.412-8.662      c0.676-0.234,1.093-0.913,0.996-1.622C36.907,24.393,36.322,23.851,35.608,23.808z M26.023,30.604      c-0.924-1.886-2.34-3.947-4.447-5.28c1.855-1.041,3.697-2.63,4.871-4.916c1.057,1.874,2.654,3.955,4.941,5.224      C29.539,26.731,27.399,28.371,26.023,30.604z"/>
			</g>
		</g>
		<g>
			<g>
				<path class="st5" d="M239.43,155.622c-0.29-16.96-6.99-32.36-17.78-43.88c-12.03-12.87-29.16-20.91-48.16-20.91H155v85.124      H16.56v26.333h222.88v-45.508C239.44,156.392,239.44,156.012,239.43,155.622z"/>
			</g>
		</g>
		<g>
			<g>
				<path class="st3" d="M240.93,155.597c-0.286-16.726-6.744-32.665-18.184-44.878c-12.704-13.591-30.657-21.386-49.256-21.386H155      c-0.828,0-1.5,0.671-1.5,1.5v83.624H16.561c-0.828,0-1.5,0.671-1.5,1.5v26.333c0,0.829,0.672,1.5,1.5,1.5h222.879      c0.828,0,1.5-0.671,1.5-1.5v-45.508C240.939,156.38,240.939,155.987,240.93,155.597z M237.939,200.79H18.061v-23.333H155      c0.828,0,1.5-0.671,1.5-1.5V92.333h16.99c17.771,0,34.926,7.448,47.065,20.436c10.931,11.671,17.101,26.899,17.374,42.892      c0.01,0.377,0.01,0.745,0.01,1.122V200.79z"/>
			</g>
		</g>
		<g>
			<g>
				<path class="st11" d="M142.62,71.682H28.94c-6.84,0-12.38,5.55-12.38,12.39v91.88H155v-91.88      C155,77.232,149.46,71.682,142.62,71.682z"/>
			</g>
		</g>
		<g>
			<g>
				<path class="st3" d="M142.62,70.183H28.939c-7.653,0-13.879,6.231-13.879,13.89v32.043c0,0.829,0.672,1.5,1.5,1.5      s1.5-0.671,1.5-1.5V84.072c0-6.004,4.88-10.89,10.879-10.89H142.62c5.999,0,10.88,4.885,10.88,10.89v90.38H18.061V129.91      c0-0.829-0.672-1.5-1.5-1.5s-1.5,0.671-1.5,1.5v46.043c0,0.829,0.672,1.5,1.5,1.5H155c0.828,0,1.5-0.671,1.5-1.5v-91.88      C156.5,76.414,150.273,70.183,142.62,70.183z"/>
			</g>
		</g>
		<g>
			<g>
				<path class="st6" d="M241.104,202.29H14.896c-2.862,0-5.182,2.32-5.182,5.181c0,2.862,2.32,5.182,5.182,5.182h226.208      c2.862,0,5.182-2.32,5.182-5.182C246.286,204.61,243.966,202.29,241.104,202.29z"/>
			</g>
		</g>
		<g>
			<g>
				<path class="st3" d="M241.104,200.79H14.896c-3.685,0-6.682,2.998-6.682,6.682c0,3.684,2.997,6.682,6.682,6.682h108.379      c0.828,0,1.5-0.671,1.5-1.5s-0.672-1.5-1.5-1.5H14.896c-2.03,0-3.682-1.651-3.682-3.682c0-2.03,1.651-3.682,3.682-3.682h226.209      c2.03,0,3.682,1.651,3.682,3.682c0,2.03-1.651,3.682-3.682,3.682H137.392c-0.828,0-1.5,0.671-1.5,1.5s0.672,1.5,1.5,1.5h103.713      c3.685,0,6.682-2.997,6.682-6.682C247.786,203.788,244.789,200.79,241.104,200.79z"/>
			</g>
		</g>
		<g>
			<g>
				
					<ellipse transform="matrix(0.982 -0.1891 0.1891 0.982 -38.8247 18.0508)" class="st6" cx="75.179" cy="212.478" rx="27.586" ry="27.586"/>
			</g>
		</g>
		<g>
			<g>
				<path class="st3" d="M75.179,183.392c-16.038,0-29.086,13.048-29.086,29.086c0,16.038,13.048,29.087,29.086,29.087      s29.086-13.048,29.086-29.087C104.265,196.44,91.217,183.392,75.179,183.392z M75.179,238.564      c-14.384,0-26.086-11.702-26.086-26.087c0-14.384,11.702-26.086,26.086-26.086s26.086,11.702,26.086,26.086      C101.265,226.862,89.563,238.564,75.179,238.564z"/>
			</g>
		</g>
		<g>
			<g>
				<circle class="st12" cx="75.179" cy="212.478" r="12.217"/>
			</g>
		</g>
		<g>
			<g>
				<path class="st3" d="M75.179,198.76c-7.563,0-13.717,6.153-13.717,13.717c0,7.564,6.153,13.717,13.717,13.717      c7.564,0,13.718-6.153,13.718-13.717C88.896,204.914,82.743,198.76,75.179,198.76z M75.179,223.195      c-5.909,0-10.717-4.808-10.717-10.717c0-5.91,4.808-10.717,10.717-10.717c5.91,0,10.718,4.808,10.718,10.717      C85.896,218.387,81.089,223.195,75.179,223.195z"/>
			</g>
		</g>
		<g>
			<g>
				
					<ellipse transform="matrix(0.982 -0.1891 0.1891 0.982 -36.7852 39.4259)" class="st6" cx="188.21" cy="212.478" rx="27.586" ry="27.586"/>
			</g>
		</g>
		<g>
			<g>
				<path class="st3" d="M188.21,183.392c-16.038,0-29.086,13.048-29.086,29.086c0,16.038,13.048,29.087,29.086,29.087      s29.086-13.048,29.086-29.087C217.296,196.44,204.248,183.392,188.21,183.392z M188.21,238.564      c-14.384,0-26.086-11.702-26.086-26.087c0-14.384,11.702-26.086,26.086-26.086s26.086,11.702,26.086,26.086      C214.296,226.862,202.594,238.564,188.21,238.564z"/>
			</g>
		</g>
		<g>
			<g>
				<circle class="st12" cx="188.21" cy="212.478" r="12.217"/>
			</g>
		</g>
		<g>
			<g>
				<path class="st3" d="M188.21,198.76c-7.563,0-13.717,6.153-13.717,13.717c0,7.564,6.153,13.717,13.717,13.717      c7.564,0,13.718-6.153,13.718-13.717C201.928,204.914,195.774,198.76,188.21,198.76z M188.21,223.195      c-5.909,0-10.717-4.808-10.717-10.717c0-5.91,4.808-10.717,10.717-10.717c5.91,0,10.718,4.808,10.718,10.717      C198.928,218.387,194.12,223.195,188.21,223.195z"/>
			</g>
		</g>
		<g>
			<g>
				<path class="st11" d="M221.65,111.744h-42.97c-3.08,0-5.58,2.15-5.58,4.8v34.28c0,2.65,2.5,4.8,5.58,4.8h60.75      C239.14,138.664,232.44,123.264,221.65,111.744z"/>
			</g>
		</g>
		<g>
			<g>
				<path class="st3" d="M222.745,110.718c-0.283-0.303-0.68-0.475-1.095-0.475H178.68c-3.904,0-7.08,2.826-7.08,6.3v34.28      c0,3.474,3.176,6.3,7.08,6.3h60.75c0.402,0,0.788-0.162,1.069-0.448c0.282-0.287,0.438-0.675,0.431-1.078      C240.644,138.872,234.186,122.934,222.745,110.718z M178.68,154.124c-2.25,0-4.08-1.48-4.08-3.3v-34.28      c0-1.819,1.83-3.3,4.08-3.3h42.316c10.312,11.233,16.271,25.673,16.89,40.88H178.68z"/>
			</g>
		</g>
		<g>
			<g>
				<path class="st10" d="M173.49,92.332h-11.33c16.58,0,32.62,6.49,44.56,17.91h11.33C206.12,98.822,190.07,92.332,173.49,92.332z"/>
			</g>
		</g>
		<g>
			<g>
				<rect x="226.61" y="157.122" class="st10" width="11.33" height="43.67"/>
			</g>
		</g>
		<g>
			<g>
				<path class="st14" d="M241.1,203.792h-11.33c2.03,0,3.68,1.65,3.68,3.68c0,2.03-1.65,3.68-3.68,3.68h11.33      c2.03,0,3.69-1.65,3.69-3.68C244.79,205.442,243.13,203.792,241.1,203.792z"/>
			</g>
		</g>
		<g>
			<g>
				<path class="st15" d="M221,113.242h-11.34c10.31,11.23,16.27,25.67,16.89,40.88h11.34      C237.27,138.912,231.31,124.472,221,113.242z"/>
			</g>
		</g>
		<g>
			<g>
				<rect x="16.56" y="90.832" class="st12" width="138.44" height="13.83"/>
			</g>
		</g>
		<g>
			<g>
				<path class="st3" d="M155,89.333h-38.569c-0.828,0-1.5,0.671-1.5,1.5s0.672,1.5,1.5,1.5H153.5v10.83H18.061v-10.83h85.009      c0.828,0,1.5-0.671,1.5-1.5s-0.672-1.5-1.5-1.5H16.561c-0.828,0-1.5,0.671-1.5,1.5v13.83c0,0.829,0.672,1.5,1.5,1.5H155      c0.828,0,1.5-0.671,1.5-1.5v-13.83C156.5,90.004,155.828,89.333,155,89.333z"/>
			</g>
		</g>
		<g>
			<g>
				<rect x="16.56" y="142.432" class="st12" width="138.44" height="13.83"/>
			</g>
		</g>
		<g>
			<g>
				<path class="st3" d="M155,140.933H16.561c-0.828,0-1.5,0.671-1.5,1.5v13.83c0,0.829,0.672,1.5,1.5,1.5H155      c0.828,0,1.5-0.671,1.5-1.5v-13.83C156.5,141.604,155.828,140.933,155,140.933z M153.5,154.762H18.061v-10.83H153.5V154.762z"/>
			</g>
		</g>
	</g>
</g>
</svg>
