<?xml version="1.0" encoding="utf-8"?>
<!-- Generator: Adobe Illustrator 22.0.1, SVG Export Plug-In . SVG Version: 6.00 Build 0)  -->
<svg xmlns="http://www.w3.org/2000/svg" xmlns:xlink="http://www.w3.org/1999/xlink" version="1.1" x="0px" y="0px" viewBox="0 0 256 256" style="enable-background:new 0 0 256 256;" xml:space="preserve" width="512" height="512">
<style type="text/css">
	.st0{display:none;}
	.st1{display:inline;}
	.st2{fill:none;stroke:#6B1D1D;stroke-width:0.5;stroke-miterlimit:10;}
	.st3{fill:#3A312A;}
	.st4{fill:#F16C7A;}
	.st5{fill:#D7E057;}
	.st6{fill:#87796F;}
	.st7{fill:#CE4E61;}
	.st8{fill-rule:evenodd;clip-rule:evenodd;fill:#D7E057;}
	.st9{fill-rule:evenodd;clip-rule:evenodd;fill:#FCE8CB;}
	.st10{fill:#B9BC39;}
	.st11{fill:#8AC6DD;}
	.st12{fill:#FCE8CB;}
	.st13{fill:#CCAE8B;}
	.st14{fill:#6B5B51;}
	.st15{fill:#68A8BC;}
	.st16{fill:#F5978A;}
	.st17{fill-rule:evenodd;clip-rule:evenodd;fill:#F16C7A;}
	.st18{fill-rule:evenodd;clip-rule:evenodd;fill:#8AC6DD;}
</style>
<g id="Layer_1" class="st0">
	<g class="st1">
		<g>
			<line class="st2" x1="0" y1="4.829" x2="256" y2="4.829"/>
			<line class="st2" x1="0" y1="16.56" x2="256" y2="16.56"/>
			<line class="st2" x1="0" y1="28.29" x2="256" y2="28.29"/>
			<line class="st2" x1="0" y1="40.021" x2="256" y2="40.021"/>
			<line class="st2" x1="0" y1="51.751" x2="256" y2="51.751"/>
			<line class="st2" x1="0" y1="63.482" x2="256" y2="63.482"/>
			<line class="st2" x1="0" y1="75.213" x2="256" y2="75.213"/>
			<line class="st2" x1="0" y1="86.943" x2="256" y2="86.943"/>
			<line class="st2" x1="0" y1="98.674" x2="256" y2="98.674"/>
			<line class="st2" x1="0" y1="110.404" x2="256" y2="110.404"/>
			<line class="st2" x1="0" y1="122.135" x2="256" y2="122.135"/>
			<line class="st2" x1="0" y1="133.865" x2="256" y2="133.865"/>
			<line class="st2" x1="0" y1="145.596" x2="256" y2="145.596"/>
			<line class="st2" x1="0" y1="157.326" x2="256" y2="157.326"/>
			<line class="st2" x1="0" y1="169.057" x2="256" y2="169.057"/>
			<line class="st2" x1="0" y1="180.788" x2="256" y2="180.788"/>
			<line class="st2" x1="0" y1="192.518" x2="256" y2="192.518"/>
			<line class="st2" x1="0" y1="204.249" x2="256" y2="204.249"/>
			<line class="st2" x1="0" y1="215.979" x2="256" y2="215.979"/>
			<line class="st2" x1="0" y1="227.71" x2="256" y2="227.71"/>
			<line class="st2" x1="0" y1="239.44" x2="256" y2="239.44"/>
			<line class="st2" x1="0" y1="251.171" x2="256" y2="251.171"/>
		</g>
		<g>
			<line class="st2" x1="251.171" y1="0" x2="251.171" y2="256"/>
			<line class="st2" x1="239.44" y1="0" x2="239.44" y2="256"/>
			<line class="st2" x1="227.71" y1="0" x2="227.71" y2="256"/>
			<line class="st2" x1="215.979" y1="0" x2="215.979" y2="256"/>
			<line class="st2" x1="204.249" y1="0" x2="204.249" y2="256"/>
			<line class="st2" x1="192.518" y1="0" x2="192.518" y2="256"/>
			<line class="st2" x1="180.788" y1="0" x2="180.788" y2="256"/>
			<line class="st2" x1="169.057" y1="0" x2="169.057" y2="256"/>
			<line class="st2" x1="157.326" y1="0" x2="157.326" y2="256"/>
			<line class="st2" x1="145.596" y1="0" x2="145.596" y2="256"/>
			<line class="st2" x1="133.865" y1="0" x2="133.865" y2="256"/>
			<line class="st2" x1="122.135" y1="0" x2="122.135" y2="256"/>
			<line class="st2" x1="110.404" y1="0" x2="110.404" y2="256"/>
			<line class="st2" x1="98.674" y1="0" x2="98.674" y2="256"/>
			<line class="st2" x1="86.943" y1="0" x2="86.943" y2="256"/>
			<line class="st2" x1="75.212" y1="0" x2="75.212" y2="256"/>
			<line class="st2" x1="63.482" y1="0" x2="63.482" y2="256"/>
			<line class="st2" x1="51.751" y1="0" x2="51.751" y2="256"/>
			<line class="st2" x1="40.021" y1="0" x2="40.021" y2="256"/>
			<line class="st2" x1="28.29" y1="0" x2="28.29" y2="256"/>
			<line class="st2" x1="16.56" y1="0" x2="16.56" y2="256"/>
			<line class="st2" x1="4.829" y1="0" x2="4.829" y2="256"/>
		</g>
	</g>
</g>
<g id="Layer_2">
	<g>
		<g>
			<g>
				<path class="st4" d="M192.973,87.158H22.695c-3.169,0-5.738,2.569-5.738,5.738v14.656c0,3.169,2.569,5.738,5.738,5.738h170.278      c3.169,0,5.738-2.569,5.738-5.738V92.896C198.711,89.727,196.142,87.158,192.973,87.158z"/>
			</g>
		</g>
		<g>
			<g>
				<path class="st3" d="M192.973,85.658H67.195c-0.829,0-1.5,0.671-1.5,1.5s0.671,1.5,1.5,1.5h125.778      c2.337,0,4.238,1.901,4.238,4.238v14.656c0,2.337-1.901,4.238-4.238,4.238H22.695c-2.337,0-4.238-1.901-4.238-4.238V92.896      c0-2.337,1.901-4.238,4.238-4.238h29.802c0.829,0,1.5-0.671,1.5-1.5s-0.671-1.5-1.5-1.5H22.695      c-3.991,0-7.238,3.247-7.238,7.238v14.656c0,3.991,3.247,7.238,7.238,7.238h170.277c3.991,0,7.238-3.247,7.238-7.238V92.896      C200.211,88.905,196.964,85.658,192.973,85.658z"/>
			</g>
		</g>
		<g>
			<g>
				<path class="st4" d="M27.105,113.29v119.893c0,3.528,2.86,6.387,6.388,6.387H179.47c3.528,0,6.387-2.86,6.387-6.387V113.29      H27.105z"/>
			</g>
		</g>
		<g>
			<g>
				<path class="st3" d="M185.857,111.79H27.105c-0.829,0-1.5,0.671-1.5,1.5v24.006c0,0.829,0.671,1.5,1.5,1.5s1.5-0.671,1.5-1.5      V114.79h155.752v118.393c0,2.695-2.192,4.888-4.888,4.888H33.493c-2.695,0-4.888-2.192-4.888-4.888v-81.299      c0-0.829-0.671-1.5-1.5-1.5s-1.5,0.671-1.5,1.5v81.299c0,4.349,3.539,7.888,7.888,7.888H179.47c4.35,0,7.888-3.539,7.888-7.888      V113.29C187.357,112.461,186.686,111.79,185.857,111.79z"/>
			</g>
		</g>
		<g>
			<g>
				<rect x="78.255" y="87.158" class="st5" width="60.788" height="26.132"/>
			</g>
		</g>
		<g>
			<g>
				<path class="st3" d="M139.043,85.658H78.255c-0.829,0-1.5,0.671-1.5,1.5v26.132c0,0.829,0.671,1.5,1.5,1.5h60.788      c0.828,0,1.5-0.671,1.5-1.5V87.158C140.543,86.33,139.871,85.658,139.043,85.658z M137.543,111.79H79.755V88.658h57.788V111.79z      "/>
			</g>
		</g>
		<g>
			<g>
				<polygon class="st5" points="78.255,113.307 78.255,153.584 96.695,140.543 102.944,153.584 110.415,146.792 119.109,153.584       128.618,146.045 139.043,153.584 139.043,113.307     "/>
			</g>
		</g>
		<g>
			<g>
				<path class="st3" d="M139.043,111.808H78.255c-0.829,0-1.5,0.671-1.5,1.5v40.276c0,0.561,0.313,1.074,0.81,1.332      c0.499,0.258,1.098,0.217,1.556-0.107l16.989-12.014l5.481,11.438c0.205,0.428,0.6,0.733,1.065,0.824      c0.096,0.019,0.192,0.028,0.288,0.028c0.37,0,0.73-0.137,1.009-0.39l6.536-5.941l7.697,6.014      c0.546,0.426,1.312,0.423,1.856-0.007l8.618-6.833l9.505,6.873c0.458,0.331,1.06,0.376,1.562,0.121      c0.502-0.256,0.817-0.772,0.817-1.336v-40.276C140.543,112.479,139.871,111.808,139.043,111.808z M137.543,150.648l-8.046-5.818      c-0.546-0.393-1.284-0.378-1.812,0.04l-8.583,6.806l-7.764-6.065c-0.272-0.212-0.598-0.318-0.923-0.318      c-0.362,0-0.724,0.131-1.009,0.39l-5.98,5.437l-5.378-11.223c-0.191-0.399-0.548-0.693-0.975-0.804      c-0.428-0.11-0.883-0.028-1.244,0.227l-16.074,11.367v-35.878h57.788V150.648z"/>
			</g>
		</g>
		<g>
			<g>
				<path class="st6" d="M93.367,214.168H45.959c-1.951,0-3.532,1.581-3.532,3.532v3.803c0,1.951,1.581,3.532,3.532,3.532h47.408      c1.951,0,3.532-1.581,3.532-3.532V217.7C96.899,215.75,95.318,214.168,93.367,214.168z"/>
			</g>
		</g>
		<g>
			<g>
				<path class="st3" d="M93.367,212.668H45.959c-2.774,0-5.032,2.257-5.032,5.032v3.804c0,2.774,2.257,5.032,5.032,5.032h47.408      c2.774,0,5.032-2.257,5.032-5.032V217.7C98.399,214.926,96.142,212.668,93.367,212.668z M95.399,221.504      c0,1.12-0.912,2.032-2.032,2.032H45.959c-1.12,0-2.032-0.912-2.032-2.032V217.7c0-1.12,0.912-2.032,2.032-2.032h47.408      c1.12,0,2.032,0.912,2.032,2.032V221.504z"/>
			</g>
		</g>
		<g>
			<g>
				<path class="st5" d="M47.392,26.106c-0.974,11.564-13.025,13.39-13.025,13.39c10.347,0.487,12.925,14.059,12.925,14.059      c0.221-9.677,13.321-14.202,13.321-14.202C50.8,38.766,47.392,26.106,47.392,26.106z"/>
			</g>
		</g>
		<g>
			<g>
				<path class="st3" d="M60.703,37.855c-8.604-0.514-11.831-12.024-11.863-12.14c-0.19-0.702-0.849-1.162-1.583-1.102      c-0.725,0.066-1.298,0.642-1.359,1.367c-0.86,10.215-11.313,11.963-11.754,12.032c-0.763,0.115-1.313,0.79-1.273,1.561      c0.04,0.77,0.657,1.384,1.427,1.421c9.028,0.425,11.499,12.718,11.523,12.842c0.137,0.711,0.759,1.217,1.472,1.217      c0.042,0,0.084-0.001,0.126-0.005c0.764-0.064,1.357-0.693,1.374-1.459c0.194-8.508,12.191-12.777,12.313-12.819      c0.675-0.235,1.092-0.915,0.994-1.623C62.001,38.439,61.417,37.898,60.703,37.855z M47.138,48.201      c-1.357-3.13-3.709-6.907-7.587-8.876c2.931-1.405,6.409-3.913,8.202-8.273c1.551,3.071,4.2,6.88,8.334,8.722      C53.079,41.414,49.164,44.18,47.138,48.201z"/>
			</g>
		</g>
		<g>
			<g>
				<path class="st5" d="M25.693,43.087c-0.689,8.179-9.212,9.471-9.212,9.471c7.318,0.344,9.142,9.944,9.142,9.944      c0.156-6.845,9.422-10.046,9.422-10.046C28.104,52.041,25.693,43.087,25.693,43.087z"/>
			</g>
		</g>
		<g>
			<g>
				<path class="st3" d="M35.134,50.958c-5.766-0.345-7.972-8.185-7.993-8.264c-0.19-0.702-0.852-1.167-1.582-1.102      c-0.726,0.065-1.299,0.642-1.36,1.368c-0.579,6.871-7.646,8.067-7.942,8.114c-0.763,0.115-1.313,0.79-1.273,1.561      c0.04,0.77,0.657,1.384,1.428,1.421c6.035,0.284,7.723,8.644,7.739,8.726c0.135,0.712,0.759,1.22,1.473,1.22      c0.041,0,0.083-0.001,0.125-0.005c0.765-0.063,1.358-0.694,1.376-1.461c0.13-5.709,8.332-8.634,8.412-8.662      c0.677-0.234,1.094-0.913,0.996-1.622C36.434,51.543,35.849,51.001,35.134,50.958z M25.55,57.754      c-0.924-1.886-2.34-3.947-4.447-5.28c1.855-1.041,3.697-2.63,4.871-4.916c1.057,1.874,2.654,3.954,4.941,5.223      C29.065,53.882,26.926,55.521,25.55,57.754z"/>
			</g>
		</g>
		<g>
			<g>
				<path class="st5" d="M25.693,16.429c-0.689,8.179-9.212,9.47-9.212,9.47c7.318,0.344,9.142,9.944,9.142,9.944      c0.156-6.844,9.422-10.045,9.422-10.045C28.104,25.383,25.693,16.429,25.693,16.429z"/>
			</g>
		</g>
		<g>
			<g>
				<path class="st3" d="M35.135,24.301c-5.766-0.345-7.972-8.186-7.994-8.265c-0.19-0.702-0.852-1.167-1.582-1.102      c-0.726,0.065-1.299,0.642-1.36,1.368c-0.579,6.871-7.646,8.067-7.942,8.114c-0.763,0.115-1.313,0.79-1.273,1.561      c0.04,0.77,0.657,1.384,1.428,1.421c6.035,0.284,7.723,8.644,7.739,8.726c0.135,0.713,0.759,1.22,1.473,1.22      c0.041,0,0.083-0.001,0.125-0.005c0.765-0.063,1.358-0.694,1.376-1.461c0.13-5.709,8.331-8.634,8.412-8.662      c0.676-0.234,1.094-0.913,0.996-1.622C36.434,24.886,35.849,24.344,35.135,24.301z M25.55,31.096      c-0.924-1.885-2.34-3.947-4.447-5.28c1.855-1.041,3.697-2.63,4.871-4.916c1.057,1.874,2.654,3.954,4.941,5.224      C29.065,27.225,26.926,28.864,25.55,31.096z"/>
			</g>
		</g>
		<g>
			<g>
				<path class="st12" d="M239.519,43.168c0-3.6-2.941-6.466-6.541-6.462h-0.067c-17.914,0-34.22-6.901-46.392-18.19      c-2.436-2.259-6.238-2.259-8.674,0c-12.172,11.288-28.478,18.19-46.392,18.19h-0.067c-3.6-0.003-6.54,2.863-6.54,6.462v84.121      h0.016c-0.008,0.032-0.016,0.057-0.016,0.089c0,4.211,33.59,42.308,57.337,42.308s57.337-38.097,57.337-42.308      c0-0.032-0.008-0.057-0.016-0.089h0.016V43.168z"/>
			</g>
		</g>
		<g>
			<g>
				<path class="st3" d="M241.02,43.168c0-2.142-0.841-4.149-2.369-5.652c-1.515-1.491-3.526-2.311-5.731-2.311h-0.007      c-16.89,0-33.003-6.318-45.373-17.789c-3.004-2.786-7.709-2.786-10.713,0c-12.37,11.471-28.483,17.789-45.438,17.789h-0.007      c-2.14,0-4.152,0.821-5.667,2.311c-1.527,1.502-2.368,3.51-2.368,5.652v84.121c0,0.017,0,0.033,0.001,0.049      c0,0.014-0.001,0.027-0.001,0.04c0,3.105,9.662,14.476,20.27,23.856c8.426,7.452,24.641,19.952,38.566,19.952      c13.926,0,30.141-12.5,38.566-19.952c10.609-9.381,20.271-20.752,20.271-23.856c0-0.012,0-0.024-0.001-0.038      c0.001-0.017,0.001-0.035,0.001-0.052V43.168z M238.02,127.13c-0.01,0.081-0.013,0.163-0.009,0.244      c-1.077,4.726-33.477,40.813-55.828,40.813c-22.382,0-54.838-36.184-55.827-40.761c0.01-0.112,0.006-0.224-0.009-0.334V43.168      c0-1.332,0.523-2.579,1.472-3.513c0.951-0.936,2.23-1.498,3.635-1.45c17.649,0,34.487-6.602,47.412-18.59      c1.861-1.725,4.773-1.725,6.635,0c12.925,11.988,29.764,18.59,47.479,18.59h0.005c1.347,0,2.612,0.515,3.563,1.45      c0.949,0.934,1.473,2.182,1.473,3.513V127.13z"/>
			</g>
		</g>
		<g>
			<g>
				<path class="st6" d="M220.774,65.001c-2.705-2.999-7.33-3.238-10.329-0.531l-18.577,16.759l-10.787,9.731l-11.768,10.616      l-14.323-20.224c-2.335-3.297-6.9-4.075-10.194-1.742c-3.296,2.335-4.076,6.899-1.741,10.194l19.079,26.939      c1.207,1.706,3.087,2.812,5.162,3.042c0.27,0.029,0.539,0.044,0.806,0.044c1.8,0,3.548-0.665,4.899-1.883l47.243-42.619      C223.241,72.623,223.479,67.999,220.774,65.001z"/>
			</g>
		</g>
		<g>
			<g>
				<path class="st3" d="M221.888,63.996c-3.255-3.607-8.839-3.895-12.448-0.64l-18.577,16.759      c-0.615,0.555-0.664,1.503-0.108,2.119c0.555,0.615,1.503,0.663,2.118,0.109l18.577-16.759c2.382-2.148,6.064-1.958,8.211,0.422      c1.04,1.153,1.569,2.642,1.489,4.192c-0.08,1.55-0.759,2.977-1.912,4.017l-47.241,42.618c-1.229,1.109-2.883,1.64-4.536,1.462      c-1.648-0.183-3.144-1.064-4.103-2.418l-19.079-26.94c-0.897-1.267-1.248-2.808-0.986-4.338      c0.262-1.531,1.103-2.868,2.371-3.765c1.266-0.897,2.807-1.25,4.337-0.986c1.53,0.261,2.867,1.103,3.766,2.371l14.323,20.224      c0.247,0.35,0.633,0.577,1.059,0.624c0.422,0.049,0.852-0.09,1.17-0.377l11.768-10.617c0.615-0.555,0.664-1.503,0.108-2.119      c-0.556-0.616-1.504-0.664-2.118-0.109l-10.515,9.486l-13.348-18.846c-1.36-1.921-3.388-3.197-5.708-3.593      c-2.325-0.397-4.655,0.136-6.576,1.495c-1.921,1.36-3.197,3.388-3.594,5.708c-0.397,2.321,0.135,4.656,1.496,6.577      l19.078,26.939c1.453,2.053,3.721,3.389,6.225,3.667c0.324,0.035,0.646,0.053,0.967,0.053c2.184,0,4.28-0.806,5.904-2.27      l47.242-42.619c1.748-1.577,2.777-3.74,2.898-6.09C224.267,68.001,223.465,65.744,221.888,63.996z"/>
			</g>
		</g>
		<g>
			<g>
				<path class="st7" d="M182.186,171.185c-3.093,0-6.299-0.619-9.507-1.659v1.56c0.005,0,0.011-0.001,0.017-0.001v62.1      c0,2.69-2.2,4.89-4.89,4.89h11.66c2.7,0,4.89-2.2,4.89-4.89v-62.1C183.626,171.145,182.906,171.185,182.186,171.185z"/>
			</g>
		</g>
		<g>
			<g>
				<path class="st13" d="M236.546,39.655c-0.95-0.93-2.21-1.45-3.56-1.45c0,0,0,0-0.01,0c-2.226,0-4.438-0.105-6.63-0.311      l0.01,89.231c-0.01,0.08-0.02,0.17-0.01,0.25c-0.99,4.33-28.25,34.96-50,40.08c2,0.47,3.96,0.73,5.84,0.73      c22.35,0,54.75-36.08,55.82-40.81c0-0.08,0-0.17,0.01-0.25v-83.96C238.016,41.835,237.496,40.585,236.546,39.655z"/>
			</g>
		</g>
	</g>
</g>
</svg>
