<svg height="400pt" viewBox="0 -2 400.00082 400" width="400pt" xmlns="http://www.w3.org/2000/svg"><path d="m0 145.957031v77.421875c-.109375 17.375 13.890625 31.546875 31.261719 31.65625h6.738281v-141h-6.332031c-17.5.011719-31.6757815 14.207032-31.667969 31.707032zm0 0"/><path d="m136.847656 271.035156h-80.683594l31.414063 102.550782c2.484375 8.265624 8.238281 15.15625 15.929687 19.074218 7.652344 3.90625 16.574219 4.492188 24.667969 1.625 15.589844-5.570312 24.304688-22.160156 20.042969-38.15625-6.800781-24.996094-10.777344-55.09375-11.371094-85.09375zm0 0"/><path d="m54 114.035156h83v141h-83zm0 0"/><path d="m153 113.78125v141.765625c49 2.0625 96.316406 22.648437 127.769531 40.0625 16.019531 8.886719 31.460938 18.777344 46.230469 29.609375v-281.484375c-15.390625 10.941406-31.414062 20.960937-47.988281 30.015625-45.722657 24.917969-88.011719 38.363281-126.011719 40.03125zm0 0"/><path d="m371.5 0c-15.769531.03125-28.53125 12.839844-28.5 28.613281v312.054688c0 15.738281 12.761719 28.5 28.5 28.5 15.742188 0 28.5-12.761719 28.5-28.5v-312c.0625-15.773438-12.675781-28.605469-28.445312-28.667969zm0 0"/></svg>