<svg height="512" viewBox="0 0 64 64" width="512" xmlns="http://www.w3.org/2000/svg"><g id="Ticket-2" data-name="Ticket"><path d="m10 14h14v6h-14z"/><path d="m10 32h14v6h-14z"/><path d="m40.1 7.725-3.51-3.345-3.513 3.344a1 1 0 0 1 -1.379 0l-3.51-3.343-3.508 3.343a1 1 0 0 1 -1.379 0l-3.51-3.343-3.51 3.343a1 1 0 0 1 -1.379 0l-3.509-3.343-3.508 3.343a1 1 0 0 1 -1.38 0l-2.505-2.389v38.665h40v-1.6l-9.08-9.419a5 5 0 1 1 7.08-7.048l2 2v-22.601l-2.516 2.393a1 1 0 0 1 -1.384 0zm-32.1 17.275h2v2h-2zm18 14a1 1 0 0 1 -1 1h-16a1 1 0 0 1 -1-1v-8a1 1 0 0 1 1-1h16a1 1 0 0 1 1 1zm0-12h-14v-2h14zm0-6a1 1 0 0 1 -1 1h-16a1 1 0 0 1 -1-1v-8a1 1 0 0 1 1-1h16a1 1 0 0 1 1 1zm12-7h-6v2h5a1 1 0 0 1 1 1v4a1 1 0 0 1 -1 1h-2v2h-2v-2h-3v-2h6v-2h-5a1 1 0 0 1 -1-1v-4a1 1 0 0 1 1-1h2v-2h2v2h3z"/><path d="m44.258 31.02-3.675-3.673a3.044 3.044 0 0 0 -4.236 0 2.979 2.979 0 0 0 0 4.234l9.375 9.725a1 1 0 0 1 .278.694v3a1 1 0 0 1 -1 1h-7v3a5.006 5.006 0 0 0 5 5h15v-23.687a6.958 6.958 0 0 0 -2.05-4.949l-9.95-9.95v14.553l5.742 6.363-1.484 1.34z"/><path d="m38 56h22v4h-22z"/></g></svg>